<svg xmlns="http://www.w3.org/2000/svg"
     viewBox="0 0 533.5 544.3"
     width="20"
     height="20"
     class="block">
  <path fill="#4285F4" d="M533.5 278.4c0-17.4-1.4-34.1-4.1-50.3H272v95.2h146.9c-6.3 34-25.1 62.8-53.6 82v68.1h86.7c50.7-46.7 81.5-115.5 81.5-195z"/>
  <path fill="#34A853" d="M272 544.3c72.6 0 133.5-24.1 178-65.9l-86.7-68.1c-24.1 16.2-54.9 25.8-91.3 25.8-70.3 0-129.9-47.4-151.2-111.1H31.7v69.9c44.1 87.4 134.9 149.4 240.3 149.4z"/>
  <path fill="#FBBC05" d="M120.8 325c-10.4-30.9-10.4-64.1 0-95l-89.1-69.9c-38.9 77.7-38.9 157.2 0 234.9l89.1-69.9z"/>
  <path fill="#EA4335" d="M272 107.7c39.5-.6 77.6 14.4 106.7 41.8l80-80C411.6 24.7 344.6-1 272 0 166.6 0 75.8 62 31.7 149.4l89.1 69.9C142.1 155.1 201.7 107.7 272 107.7z"/>
</svg>
